<svg xmlns="http://www.w3.org/2000/svg" viewBox="0 0 1081.37 717.96"><defs><style>.cls-1,.cls-2,.cls-3,.cls-4{fill:none;stroke-miterlimit:10;}.cls-1{stroke:#a2dbf4;}.cls-2{stroke:#b786ea;}.cls-3{stroke:#7befdb;}.cls-4{stroke:#fff;}</style></defs><title>Asset 87</title><g id="Layer_2" data-name="Layer 2"><g id="Layer_1-2" data-name="Layer 1"><polyline class="cls-1" points="504.18 100.13 601.51 100.13 726.42 160.15 723.99 112.3 730.43 163.09 777.53 197.62 727.23 115.54 784.08 202.41 849.93 140.25 845.65 70.12 853.76 136.63 789.13 206.12 827.81 237.21 858.63 308.58 893.55 306 960.12 209.78 933.25 180.43 971.96 192.66 991.65 164.21 973.12 193.51 1011.11 263.16 962.12 210.92 902.43 305.34 860.1 315.71 867.08 349.45 957.4 340.68 985.16 384.82 1074.38 358.87 981.44 373.26 970.56 339.4 868.36 355.63 808.34 328.05 733.72 355.63 754.81 271.27 612.06 237.21 492.02 258.3 410.91 191.79 493.64 152.85 493.64 250.18 610.44 232.34 496.88 157.72 581.24 131.77 613.68 230.72 649.37 170.7 509.86 102.57 597.46 104.19 584.48 126.9 639.64 160.97 603.95 105.81 720.74 164.21 652.61 167.45 749.94 266.41 730.48 167.45 780.76 208.01 756.43 266.41 801.85 321.56 785.63 211.25 832.67 276.14 829.43 248.56 835.92 285.87 811.59 323.18 850.52 341.03 840.78 289.12 853.76 306.96 855.38 345.89 842.41 389.69 814.83 394.56 806.72 332.92 814.83 485.4 839.16 394.56 882.96 384.82 853.76 456.2 819.7 399.42 809.96 496.75 751.57 462.69 689.92 592.46 806.72 498.38 785.63 571.37 848.9 500 813.21 496.75 798.61 589.22 837.79 591.75 915.4 641.13 848.9 592.46 795.5 591.25 723.99 637.88 780.76 576.24 689.92 600.57 719.12 634.64 681.81 600.57 678.57 658.97 646.12 663.84 634.77 684.93 675.32 684.93 650.99 667.08"/><polyline class="cls-2" points="566.64 65.26 492.02 83.1 428.75 112.3 438.49 68.5 479.04 76.61 552.04 65.26 448.22 65.26 376.84 0.37 435.24 65.26 391.44 128.52 433.62 146.37 373.6 203.14 391.44 133.39 432 157.72 459.57 133.39 459.57 191.79 430.38 162.59 354.13 183.68 313.58 156.1 298.98 128.52 308.71 159.34 269.78 203.14 172.45 125.28 268.16 208.01 315.2 201.52 342.78 186.92 315.2 164.21 311.96 212.87 300.6 285.87 347.64 386.45 295.74 409.16 320.07 428.62 295.74 415.65 268.16 514.6 266.54 376.71 290.87 402.67 297.36 287.49 271.4 365.36 242.2 311.83 292.49 284.25 307.09 206.39 250.31 302.09 219.49 329.67 235.72 417.27 243.83 328.05 264.91 370.23 242.2 414.02 261.67 503.24 238.96 425.38 217.87 443.22 174.07 452.96 133.52 474.04 50.79 392.94 133.52 480.53 170.83 461.07 115.67 535.69 75.12 452.96 169.21 449.71 219.49 448.09 238.96 509.73 208.14 521.09 240.58 514.6 237.34 436.73"/><polyline class="cls-3" points="266.54 522.71 260.05 555.15 208.14 577.86 203.27 605.44 128.65 654.11 204.89 607.06 209.76 582.73 261.67 558.4 265.53 563.43 320.07 634.64 368.73 654.11 435.24 628.15 371.98 585.97 336.29 621.66 298.98 579.49 264.91 556.77 274.65 522.71 323.31 633.02 339.53 624.91 368.73 649.24 370.36 592.46 552.04 694.66 555.28 616.79 443.35 628.15 456.33 688.17 540.68 694.66 492.02 717.37 461.2 691.41 508.24 717.37 631.52 709.26 560.15 696.28 556.9 655.73 657.48 631.39 605.57 684.93 532.57 663.84 548.79 657.35"/><circle class="cls-4" cx="174.88" cy="129.33" r="5.68"/><circle class="cls-4" cx="270.59" cy="203.95" r="5.68"/><circle class="cls-4" cx="301.41" cy="130.95" r="5.68"/><circle class="cls-4" cx="314.39" cy="156.91" r="5.68"/><circle class="cls-4" cx="351.7" cy="181.24" r="5.68"/><circle class="cls-4" cx="393.88" cy="132.58" r="5.68"/><circle class="cls-4" cx="372.79" cy="202.33" r="5.68"/><circle class="cls-4" cx="460.39" cy="192.6" r="5.68"/><circle class="cls-4" cx="460.39" cy="134.2" r="5.68"/><circle class="cls-4" cx="429.56" cy="109.87" r="5.68"/><circle class="cls-4" cx="440.92" cy="69.31" r="5.68"/><circle class="cls-4" cx="492.83" cy="85.53" r="5.68"/><circle class="cls-4" cx="569.07" cy="66.07" r="5.68"/><circle class="cls-4" cx="580.43" cy="130.95" r="5.68"/><circle class="cls-4" cx="603.14" cy="98.51" r="5.68"/><circle class="cls-4" cx="650.18" cy="169.89" r="5.68"/><circle class="cls-4" cx="614.49" cy="234.77" r="5.68"/><circle class="cls-4" cx="491.21" cy="257.48" r="5.68"/><circle class="cls-4" cx="724.8" cy="114.73" r="5.68"/><circle class="cls-4" cx="724.8" cy="165.02" r="5.68"/><circle class="cls-4" cx="786.44" cy="202.33" r="5.68"/><circle class="cls-4" cx="854.57" cy="135.82" r="5.68"/><circle class="cls-4" cx="828.62" cy="239.64" r="5.68"/><circle class="cls-4" cx="937.3" cy="184.49" r="5.68"/><circle class="cls-4" cx="992.46" cy="165.02" r="5.68"/><circle class="cls-4" cx="898.37" cy="302.91" r="5.68"/><circle class="cls-4" cx="857.82" cy="312.64" r="5.68"/><circle class="cls-4" cx="869.17" cy="356.44" r="5.68"/><circle class="cls-4" cx="851.33" cy="349.95" r="5.68"/><circle class="cls-4" cx="809.15" cy="330.48" r="5.68"/><circle class="cls-4" cx="734.53" cy="358.06" r="5.68"/><circle class="cls-4" cx="961.64" cy="341.84" r="5.68"/><circle class="cls-4" cx="984.35" cy="377.52" r="5.68"/><circle class="cls-4" cx="1075.19" cy="361.3" r="5.68"/><circle class="cls-4" cx="854.57" cy="455.39" r="5.68"/><circle class="cls-4" cx="820.51" cy="395.37" r="5.68"/><circle class="cls-4" cx="849.71" cy="500.81" r="5.68"/><circle class="cls-4" cx="771.84" cy="398.61" r="5.68"/><circle class="cls-4" cx="752.38" cy="465.12" r="5.68"/><circle class="cls-4" cx="784.82" cy="573.81" r="5.68"/><circle class="cls-4" cx="689.11" cy="596.52" r="5.68"/><circle class="cls-4" cx="632.34" cy="708.45" r="5.68"/><circle class="cls-4" cx="635.58" cy="684.12" r="5.68"/><circle class="cls-4" cx="549.61" cy="695.47" r="5.68"/><circle class="cls-4" cx="556.09" cy="619.23" r="5.68"/><circle class="cls-4" cx="416.59" cy="706.83" r="5.68"/><circle class="cls-4" cx="439.3" cy="630.58" r="5.68"/><circle class="cls-4" cx="413.34" cy="575.43" r="5.68"/><circle class="cls-4" cx="372.79" cy="586.79" r="5.68"/><circle class="cls-4" cx="371.17" cy="654.92" r="5.68"/><circle class="cls-4" cx="335.48" cy="622.47" r="5.68"/><circle class="cls-4" cx="324.12" cy="635.45" r="5.68"/><circle class="cls-4" cx="205.7" cy="604.63" r="5.68"/><circle class="cls-4" cx="208.95" cy="578.67" r="5.68"/><circle class="cls-4" cx="259.24" cy="557.59" r="5.68"/><circle class="cls-4" cx="299.79" cy="581.92" r="5.68"/><circle class="cls-4" cx="299.79" cy="533.25" r="5.68"/><circle class="cls-4" cx="268.97" cy="520.28" r="5.68"/><circle class="cls-4" cx="213.82" cy="523.52" r="5.68"/><circle class="cls-4" cx="135.95" cy="476.48" r="5.68"/><circle class="cls-4" cx="157.04" cy="377.52" r="5.68"/><circle class="cls-4" cx="195.97" cy="319.13" r="5.68"/><circle class="cls-4" cx="294.92" cy="283.44" r="5.68"/><circle class="cls-4" cx="364.68" cy="262.35" r="5.68"/><circle class="cls-4" cx="272.21" cy="372.66" r="5.68"/><circle class="cls-4" cx="238.15" cy="418.08" r="5.68"/><circle class="cls-4" cx="320.88" cy="427.81" r="5.68"/><circle class="cls-4" cx="299.79" cy="411.59" r="5.68"/><circle class="cls-4" cx="348.46" cy="385.64" r="5.68"/><circle class="cls-4" cx="251.13" cy="239.64" r="5.68"/><circle class="cls-4" cx="220.3" cy="332.1" r="5.68"/><circle class="cls-4" cx="246.26" cy="315.88" r="5.68"/><circle class="cls-4" cx="49.98" cy="390.5" r="5.68"/><circle class="cls-4" cx="6.18" cy="526.76" r="5.68"/><circle class="cls-4" cx="80.8" cy="549.48" r="5.68"/><circle class="cls-4" cx="721.56" cy="638.69" r="5.68"/><circle class="cls-4" cx="679.38" cy="656.54" r="5.68"/><circle class="cls-4" cx="656.67" cy="630.58" r="5.68"/><circle class="cls-4" cx="799.42" cy="590.03" r="5.68"/><circle class="cls-4" cx="841.6" cy="591.65" r="5.68"/><circle class="cls-4" cx="914.59" cy="640.32" r="5.68"/><circle class="cls-4" cx="976.24" cy="578.67" r="5.68"/><circle class="cls-4" cx="754" cy="270.46" r="5.68"/></g></g></svg>