<svg xmlns="http://www.w3.org/2000/svg" xmlns:xlink="http://www.w3.org/1999/xlink" viewBox="0 0 1368 840"><defs><style>.cls-1{opacity:0.7;}.cls-2{fill:url(#linear-gradient);}.cls-3{fill:url(#linear-gradient-2);}.cls-4{fill:url(#linear-gradient-3);}.cls-5{fill:url(#linear-gradient-4);}.cls-6{fill:url(#linear-gradient-5);}.cls-7{fill:url(#linear-gradient-6);}.cls-8{fill:url(#linear-gradient-7);}.cls-9{fill:url(#linear-gradient-8);}.cls-10{fill:url(#linear-gradient-9);}.cls-11{fill:url(#linear-gradient-10);}.cls-12{fill:url(#linear-gradient-11);}.cls-13{fill:url(#linear-gradient-12);}.cls-14{fill:url(#linear-gradient-13);}.cls-15{fill:url(#linear-gradient-14);}.cls-16{fill:url(#linear-gradient-15);}.cls-17{fill:url(#linear-gradient-16);}.cls-18{fill:url(#linear-gradient-17);}.cls-19{fill:url(#linear-gradient-18);}.cls-20{fill:url(#linear-gradient-19);}.cls-21{fill:url(#linear-gradient-20);}.cls-22{fill:none;}</style><linearGradient id="linear-gradient" x1="227.3" y1="502.85" x2="508.71" y2="502.85" gradientUnits="userSpaceOnUse"><stop offset="0" stop-color="#ff71e4"/><stop offset="0.15" stop-color="#e27fe4"/><stop offset="0.48" stop-color="#98a3e4"/><stop offset="0.96" stop-color="#22dbe4"/><stop offset="1" stop-color="#18e0e4"/></linearGradient><linearGradient id="linear-gradient-2" x1="330.1" y1="533.07" x2="563.1" y2="533.07" gradientUnits="userSpaceOnUse"><stop offset="0" stop-color="#bf49e4"/><stop offset="0.2" stop-color="#a25de4"/><stop offset="0.64" stop-color="#598ee4"/><stop offset="1" stop-color="#18bae4"/></linearGradient><linearGradient id="linear-gradient-3" x1="305.82" y1="690.64" x2="563.1" y2="690.64" gradientUnits="userSpaceOnUse"><stop offset="0" stop-color="#6011ca"/><stop offset="0.2" stop-color="#571ccd"/><stop offset="0.54" stop-color="#4038d6"/><stop offset="0.97" stop-color="#1a65e3"/><stop offset="1" stop-color="#1868e4"/></linearGradient><linearGradient id="linear-gradient-4" x1="199.63" y1="655.69" x2="297.75" y2="595.55" xlink:href="#linear-gradient-3"/><linearGradient id="linear-gradient-5" x1="94.87" y1="502.85" x2="330.1" y2="502.85" xlink:href="#linear-gradient-2"/><linearGradient id="linear-gradient-6" x1="94.87" y1="426.8" x2="227.3" y2="426.8" gradientUnits="userSpaceOnUse"><stop offset="0" stop-color="#8636e4"/><stop offset="0.16" stop-color="#7b3ee4"/><stop offset="0.45" stop-color="#5f55e4"/><stop offset="0.81" stop-color="#3279e4"/><stop offset="1" stop-color="#188de4"/></linearGradient><linearGradient id="linear-gradient-7" x1="144.32" y1="288.22" x2="386.94" y2="288.22" xlink:href="#linear-gradient-2"/><linearGradient id="linear-gradient-8" x1="405.92" y1="203.96" x2="366.36" y2="408.12" gradientUnits="userSpaceOnUse"><stop offset="0" stop-color="#e049e4"/><stop offset="0.17" stop-color="#c35ce4"/><stop offset="0.55" stop-color="#798ce4"/><stop offset="1" stop-color="#18cce4"/></linearGradient><linearGradient id="linear-gradient-9" x1="386.94" y1="318.15" x2="605.37" y2="318.15" xlink:href="#linear-gradient-2"/><linearGradient id="linear-gradient-10" x1="508.71" y1="512.42" x2="605.37" y2="512.42" gradientUnits="userSpaceOnUse"><stop offset="0" stop-color="#188de4"/><stop offset="0.19" stop-color="#3279e4"/><stop offset="0.55" stop-color="#5f55e4"/><stop offset="0.84" stop-color="#7b3ee4"/><stop offset="1" stop-color="#8636e4"/></linearGradient><linearGradient id="linear-gradient-11" x1="700.15" y1="252.63" x2="907.99" y2="252.63" gradientTransform="translate(-61.21 769.75) rotate(-30.86)" gradientUnits="userSpaceOnUse"><stop offset="0" stop-color="#ff38bd"/><stop offset="0.22" stop-color="#ff53a0"/><stop offset="0.71" stop-color="#ff9757"/><stop offset="1" stop-color="#ffc327"/></linearGradient><linearGradient id="linear-gradient-12" x1="776.07" y1="274.96" x2="948.16" y2="274.96" gradientTransform="translate(-61.21 769.75) rotate(-30.86)" gradientUnits="userSpaceOnUse"><stop offset="0" stop-color="#ff3bba"/><stop offset="0.25" stop-color="#ff589f"/><stop offset="0.8" stop-color="#ffa159"/><stop offset="1" stop-color="#ffbd3f"/></linearGradient><linearGradient id="linear-gradient-13" x1="758.14" y1="391.33" x2="948.16" y2="391.33" gradientTransform="translate(-61.21 769.75) rotate(-30.86)" gradientUnits="userSpaceOnUse"><stop offset="0" stop-color="#6011ca"/><stop offset="0.12" stop-color="#6b19c3"/><stop offset="0.34" stop-color="#8730b0"/><stop offset="0.61" stop-color="#b55591"/><stop offset="0.94" stop-color="#f38766"/><stop offset="1" stop-color="#ff905e"/></linearGradient><linearGradient id="linear-gradient-14" x1="679.71" y1="365.51" x2="752.18" y2="321.09" xlink:href="#linear-gradient-13"/><linearGradient id="linear-gradient-15" x1="602.34" y1="252.63" x2="776.07" y2="252.63" gradientTransform="translate(-61.21 769.75) rotate(-30.86)" gradientUnits="userSpaceOnUse"><stop offset="0" stop-color="#bf49e4"/><stop offset="0.2" stop-color="#ca62c7"/><stop offset="0.64" stop-color="#e7a37e"/><stop offset="0.99" stop-color="#ffda3f"/></linearGradient><linearGradient id="linear-gradient-16" x1="602.34" y1="196.46" x2="700.15" y2="196.46" gradientTransform="translate(-61.21 769.75) rotate(-30.86)" gradientUnits="userSpaceOnUse"><stop offset="0" stop-color="#8636e4"/><stop offset="0.11" stop-color="#8d41db"/><stop offset="0.3" stop-color="#9f5dc1"/><stop offset="0.55" stop-color="#bd8b99"/><stop offset="0.84" stop-color="#e6c961"/><stop offset="1" stop-color="#ffef3f"/></linearGradient><linearGradient id="linear-gradient-17" x1="638.87" y1="94.11" x2="818.06" y2="94.11" gradientTransform="translate(-61.21 769.75) rotate(-30.86)" gradientUnits="userSpaceOnUse"><stop offset="0" stop-color="#bf49e4"/><stop offset="0.18" stop-color="#c95ec7"/><stop offset="0.58" stop-color="#e2947d"/><stop offset="1" stop-color="#ffd02a"/></linearGradient><linearGradient id="linear-gradient-18" x1="832.08" y1="31.88" x2="802.86" y2="182.67" gradientTransform="translate(-61.21 769.75) rotate(-30.86)" gradientUnits="userSpaceOnUse"><stop offset="0" stop-color="#e049e4"/><stop offset="0.22" stop-color="#e666ca"/><stop offset="0.68" stop-color="#f4af87"/><stop offset="1" stop-color="#ffe556"/></linearGradient><linearGradient id="linear-gradient-19" x1="818.06" y1="116.22" x2="979.39" y2="116.22" gradientTransform="translate(-61.21 769.75) rotate(-30.86)" gradientUnits="userSpaceOnUse"><stop offset="0" stop-color="#bf49e4"/><stop offset="0.15" stop-color="#c75fc7"/><stop offset="0.49" stop-color="#dc997d"/><stop offset="0.97" stop-color="#fdf307"/><stop offset="1" stop-color="#fff900"/></linearGradient><linearGradient id="linear-gradient-20" x1="907.99" y1="259.71" x2="979.39" y2="259.71" xlink:href="#linear-gradient-17"/></defs><title>layer3</title><g id="Layer_2" data-name="Layer 2"><g id="three"><g class="cls-1"><polygon class="cls-2" points="227.3 369.69 508.71 429.55 330.1 636 227.3 369.69"/><polygon class="cls-3" points="563.1 636.6 508.71 429.55 330.1 636 563.1 636.6"/><polygon class="cls-4" points="563.1 636.6 305.82 745.28 330.1 636 563.1 636.6"/><polygon class="cls-5" points="94.87 565.22 305.82 745.28 330.1 636 94.87 565.22"/><polygon class="cls-6" points="94.87 565.22 227.3 369.69 330.1 636 94.87 565.22"/><polygon class="cls-7" points="94.87 565.22 227.3 369.69 144.32 288.39 94.87 565.22"/><polygon class="cls-8" points="386.94 206.75 227.3 369.69 144.32 288.39 386.94 206.75"/><polygon class="cls-9" points="227.3 369.69 508.71 429.55 386.94 206.75 227.3 369.69"/><polygon class="cls-10" points="605.37 388.23 508.71 429.55 386.94 206.75 605.37 388.23"/><polygon class="cls-11" points="605.37 388.23 508.71 429.55 563.1 636.6 605.37 388.23"/></g><polygon class="cls-12" points="619 543.09 820.11 474.45 785.06 673.01 619 543.09"/><polygon class="cls-13" points="933.03 585.13 820.11 474.45 785.06 673.01 933.03 585.13"/><polygon class="cls-14" points="933.03 585.13 811.06 751.5 785.06 673.01 933.03 585.13"/><polygon class="cls-15" points="609.1 717.24 811.06 751.5 785.06 673.01 609.1 717.24"/><polygon class="cls-16" points="609.1 717.24 619 543.09 785.06 673.01 609.1 717.24"/><polygon class="cls-17" points="609.1 717.24 619 543.09 535.59 522.97 609.1 717.24"/><polygon class="cls-18" points="658.51 379.3 619 543.09 535.59 522.97 658.51 379.3"/><polygon class="cls-19" points="619 543.09 820.11 474.45 658.51 379.3 619 543.09"/><polygon class="cls-20" points="865.75 411.64 820.11 474.45 658.51 379.3 865.75 411.64"/><polygon class="cls-21" points="865.75 411.64 820.11 474.45 933.03 585.13 865.75 411.64"/><rect class="cls-22" width="1368" height="840"/></g></g></svg>