<svg xmlns="http://www.w3.org/2000/svg" xmlns:xlink="http://www.w3.org/1999/xlink" viewBox="0 0 1368 840"><defs><style>.cls-1{fill:url(#linear-gradient);}.cls-2{fill:url(#linear-gradient-2);}.cls-3{fill:url(#linear-gradient-3);}.cls-4{fill:url(#linear-gradient-4);}.cls-5{fill:url(#linear-gradient-5);}.cls-6{fill:url(#linear-gradient-6);}.cls-7{fill:url(#linear-gradient-7);}.cls-8{fill:url(#linear-gradient-8);}.cls-9{fill:url(#linear-gradient-9);}.cls-10{fill:none;}</style><linearGradient id="linear-gradient" x1="598.44" y1="585.7" x2="781.98" y2="402.16" gradientTransform="matrix(0.81, 0.19, -0.31, 0.78, 456.94, -249.18)" gradientUnits="userSpaceOnUse"><stop offset="0" stop-color="#ff29bf"/><stop offset="0.1" stop-color="#ff30ba"/><stop offset="0.25" stop-color="#ff43ae"/><stop offset="0.43" stop-color="#ff6398"/><stop offset="0.63" stop-color="#ff8f7b"/><stop offset="0.85" stop-color="#ffc756"/><stop offset="0.97" stop-color="#ffea3f"/></linearGradient><linearGradient id="linear-gradient-2" x1="762.08" y1="589.12" x2="865.51" y2="485.69" gradientTransform="matrix(0.81, 0.19, -0.31, 0.78, 456.94, -249.18)" gradientUnits="userSpaceOnUse"><stop offset="0" stop-color="#ff2979"/><stop offset="0.12" stop-color="#ff3076"/><stop offset="0.3" stop-color="#ff436f"/><stop offset="0.51" stop-color="#ff6363"/><stop offset="0.74" stop-color="#ff8f52"/><stop offset="0.97" stop-color="#ffbf3f"/></linearGradient><linearGradient id="linear-gradient-3" x1="670.29" y1="680.62" x2="773.59" y2="577.31" gradientTransform="matrix(0.81, 0.19, -0.31, 0.78, 456.94, -249.18)" gradientUnits="userSpaceOnUse"><stop offset="0" stop-color="#ff2979"/><stop offset="0.15" stop-color="#ff3076"/><stop offset="0.36" stop-color="#ff436c"/><stop offset="0.61" stop-color="#ff635c"/><stop offset="0.89" stop-color="#ff8f46"/><stop offset="0.97" stop-color="#ff9d3f"/></linearGradient><linearGradient id="linear-gradient-4" x1="191.05" y1="889.35" x2="374.59" y2="705.81" xlink:href="#linear-gradient"/><linearGradient id="linear-gradient-5" x1="354.69" y1="892.77" x2="458.12" y2="789.34" xlink:href="#linear-gradient-2"/><linearGradient id="linear-gradient-6" x1="262.9" y1="984.26" x2="366.2" y2="880.96" xlink:href="#linear-gradient-3"/><linearGradient id="linear-gradient-7" x1="1942.45" y1="1105.83" x2="2125.99" y2="922.3" gradientTransform="matrix(-0.72, 0.41, -0.27, -0.62, 2222.56, 413.17)" gradientUnits="userSpaceOnUse"><stop offset="0" stop-color="#ff71e4"/><stop offset="0.15" stop-color="#e27fe4"/><stop offset="0.48" stop-color="#98a3e4"/><stop offset="0.96" stop-color="#22dbe4"/><stop offset="1" stop-color="#18e0e4"/></linearGradient><linearGradient id="linear-gradient-8" x1="2106.09" y1="1109.26" x2="2209.52" y2="1005.83" gradientTransform="matrix(-0.72, 0.41, -0.27, -0.62, 2222.56, 413.17)" gradientUnits="userSpaceOnUse"><stop offset="0" stop-color="#bf49e4"/><stop offset="0.2" stop-color="#a25de4"/><stop offset="0.64" stop-color="#598ee4"/><stop offset="1" stop-color="#18bae4"/></linearGradient><linearGradient id="linear-gradient-9" x1="2014.31" y1="1200.74" x2="2117.61" y2="1097.45" xlink:href="#linear-gradient-8"/></defs><title>layer1</title><g id="Layer_2" data-name="Layer 2"><g id="one"><polygon class="cls-1" points="908.21 354.37 759.52 319.55 816.63 176.9 965.32 211.72 908.21 354.37"/><polygon class="cls-2" points="908.21 354.37 932.71 434.01 989.81 291.37 965.32 211.72 908.21 354.37"/><polygon class="cls-3" points="908.21 354.37 932.71 434.01 784.02 398.84 759.52 319.19 908.21 354.37"/><polygon class="cls-4" points="483.72 513.08 335.03 478.26 392.14 335.62 540.83 370.44 483.72 513.08"/><polygon class="cls-5" points="483.72 513.08 508.21 592.73 565.32 450.08 540.83 370.44 483.72 513.08"/><polygon class="cls-6" points="483.72 513.08 508.21 592.73 359.53 557.55 335.03 477.9 483.72 513.08"/><polygon class="cls-7" points="397 600.7 528.62 524.87 578.58 639.54 446.96 715.37 397 600.7"/><polygon class="cls-8" points="397 600.7 327.71 572.67 377.67 687.34 446.96 715.37 397 600.7"/><polygon class="cls-9" points="397 600.7 327.71 572.67 459.55 497.03 528.85 525.07 397 600.7"/><rect class="cls-10" width="1368" height="840"/></g></g></svg>