<svg xmlns="http://www.w3.org/2000/svg" xmlns:xlink="http://www.w3.org/1999/xlink" viewBox="0 0 1368 840"><defs><style>.cls-1{fill:url(#linear-gradient);}.cls-2{fill:url(#linear-gradient-2);}.cls-3{fill:url(#linear-gradient-3);}.cls-4{fill:url(#linear-gradient-4);}.cls-5{fill:url(#linear-gradient-5);}.cls-6{fill:url(#linear-gradient-6);}.cls-7{fill:url(#linear-gradient-7);}.cls-8{fill:url(#linear-gradient-8);}.cls-9{fill:url(#linear-gradient-9);}.cls-10{fill:url(#linear-gradient-10);}.cls-11{fill:none;}</style><linearGradient id="linear-gradient" x1="500.37" y1="436.85" x2="781.77" y2="436.85" gradientUnits="userSpaceOnUse"><stop offset="0" stop-color="#ff71e4"/><stop offset="0.15" stop-color="#e282e4"/><stop offset="0.48" stop-color="#98afe4"/><stop offset="0.96" stop-color="#22f6e4"/><stop offset="1" stop-color="#18fce4"/></linearGradient><linearGradient id="linear-gradient-2" x1="603.16" y1="467.08" x2="836.17" y2="467.08" gradientUnits="userSpaceOnUse"><stop offset="0" stop-color="#bf49e4"/><stop offset="0.2" stop-color="#a25de4"/><stop offset="0.64" stop-color="#598ee4"/><stop offset="1" stop-color="#18bae4"/></linearGradient><linearGradient id="linear-gradient-3" x1="578.88" y1="624.64" x2="836.17" y2="624.64" gradientUnits="userSpaceOnUse"><stop offset="0" stop-color="#6011ca"/><stop offset="0.2" stop-color="#571ccd"/><stop offset="0.54" stop-color="#4038d6"/><stop offset="0.97" stop-color="#1a65e3"/><stop offset="1" stop-color="#1868e4"/></linearGradient><linearGradient id="linear-gradient-4" x1="472.69" y1="589.69" x2="570.82" y2="529.55" xlink:href="#linear-gradient-3"/><linearGradient id="linear-gradient-5" x1="367.94" y1="436.85" x2="603.16" y2="436.85" xlink:href="#linear-gradient-2"/><linearGradient id="linear-gradient-6" x1="367.94" y1="360.8" x2="500.37" y2="360.8" gradientUnits="userSpaceOnUse"><stop offset="0" stop-color="#8636e4"/><stop offset="0.16" stop-color="#7b3ee4"/><stop offset="0.45" stop-color="#5f55e4"/><stop offset="0.81" stop-color="#3279e4"/><stop offset="1" stop-color="#188de4"/></linearGradient><linearGradient id="linear-gradient-7" x1="417.39" y1="222.22" x2="660.01" y2="222.22" xlink:href="#linear-gradient-2"/><linearGradient id="linear-gradient-8" x1="678.99" y1="137.96" x2="639.42" y2="342.12" gradientUnits="userSpaceOnUse"><stop offset="0" stop-color="#e049e4"/><stop offset="0.17" stop-color="#c35ce4"/><stop offset="0.55" stop-color="#798ce4"/><stop offset="1" stop-color="#18cce4"/></linearGradient><linearGradient id="linear-gradient-9" x1="660.01" y1="252.15" x2="878.44" y2="252.15" xlink:href="#linear-gradient-2"/><linearGradient id="linear-gradient-10" x1="781.77" y1="446.42" x2="878.44" y2="446.42" gradientUnits="userSpaceOnUse"><stop offset="0" stop-color="#188de4"/><stop offset="0.19" stop-color="#3279e4"/><stop offset="0.55" stop-color="#5f55e4"/><stop offset="0.84" stop-color="#7b3ee4"/><stop offset="1" stop-color="#8636e4"/></linearGradient></defs><title>layer2</title><g id="Layer_2" data-name="Layer 2"><g id="two"><polygon class="cls-1" points="500.37 303.69 781.77 363.55 603.16 570 500.37 303.69"/><polygon class="cls-2" points="836.16 570.6 781.77 363.55 603.16 570 836.16 570.6"/><polygon class="cls-3" points="836.16 570.6 578.88 679.28 603.16 570 836.16 570.6"/><polygon class="cls-4" points="367.94 499.22 578.88 679.28 603.16 570 367.94 499.22"/><polygon class="cls-5" points="367.94 499.22 500.37 303.69 603.16 570 367.94 499.22"/><polygon class="cls-6" points="367.94 499.22 500.37 303.69 417.38 222.39 367.94 499.22"/><polygon class="cls-7" points="660.01 140.75 500.37 303.69 417.38 222.39 660.01 140.75"/><polygon class="cls-8" points="500.37 303.69 781.77 363.55 660.01 140.75 500.37 303.69"/><polygon class="cls-9" points="878.44 322.23 781.77 363.55 660.01 140.75 878.44 322.23"/><polygon class="cls-10" points="878.44 322.23 781.77 363.55 836.16 570.6 878.44 322.23"/><rect class="cls-11" width="1368" height="840"/></g></g></svg>