<svg xmlns="http://www.w3.org/2000/svg" xmlns:xlink="http://www.w3.org/1999/xlink" viewBox="0 0 1368 911"><defs><style>.cls-1{fill:url(#linear-gradient);}.cls-2{fill:url(#linear-gradient-2);}.cls-3{fill:url(#linear-gradient-3);}.cls-4{fill:url(#linear-gradient-4);}.cls-5{fill:url(#linear-gradient-5);}.cls-6{fill:url(#linear-gradient-6);}.cls-7{fill:url(#linear-gradient-7);}.cls-8{fill:url(#linear-gradient-8);}.cls-9{fill:url(#linear-gradient-9);}.cls-10{fill:url(#linear-gradient-10);}.cls-11{fill:url(#linear-gradient-11);}.cls-12{fill:url(#linear-gradient-12);}.cls-13{fill:url(#linear-gradient-13);}.cls-14{fill:none;}</style><linearGradient id="linear-gradient" x1="176.7" y1="-443.38" x2="312.16" y2="-578.84" gradientTransform="matrix(0.46, -0.7, 0.62, 0.56, 395.82, 617.53)" gradientUnits="userSpaceOnUse"><stop offset="0" stop-color="#ff29bf"/><stop offset="0.1" stop-color="#ff30ba"/><stop offset="0.25" stop-color="#ff43ae"/><stop offset="0.43" stop-color="#ff6398"/><stop offset="0.63" stop-color="#ff8f7b"/><stop offset="0.85" stop-color="#ffc756"/><stop offset="0.97" stop-color="#ffea3f"/></linearGradient><linearGradient id="linear-gradient-2" x1="297.47" y1="-440.86" x2="373.8" y2="-517.19" gradientTransform="matrix(0.46, -0.7, 0.62, 0.56, 395.82, 617.53)" gradientUnits="userSpaceOnUse"><stop offset="0" stop-color="#ff2979"/><stop offset="0.12" stop-color="#ff3076"/><stop offset="0.3" stop-color="#ff436f"/><stop offset="0.51" stop-color="#ff6363"/><stop offset="0.74" stop-color="#ff8f52"/><stop offset="0.97" stop-color="#ffbf3f"/></linearGradient><linearGradient id="linear-gradient-3" x1="229.73" y1="-373.33" x2="305.97" y2="-449.57" gradientTransform="matrix(0.46, -0.7, 0.62, 0.56, 395.82, 617.53)" gradientUnits="userSpaceOnUse"><stop offset="0" stop-color="#ff2979"/><stop offset="0.15" stop-color="#ff3076"/><stop offset="0.36" stop-color="#ff436c"/><stop offset="0.61" stop-color="#ff635c"/><stop offset="0.89" stop-color="#ff8f46"/><stop offset="0.97" stop-color="#ff9d3f"/></linearGradient><linearGradient id="linear-gradient-4" x1="930.21" y1="511.43" x2="1011.5" y2="511.43" gradientUnits="userSpaceOnUse"><stop offset="0" stop-color="#ff71e4"/><stop offset="0.15" stop-color="#e282e4"/><stop offset="0.48" stop-color="#98afe4"/><stop offset="0.96" stop-color="#22f6e4"/><stop offset="1" stop-color="#18fce4"/></linearGradient><linearGradient id="linear-gradient-5" x1="959.9" y1="520.16" x2="1027.22" y2="520.16" gradientUnits="userSpaceOnUse"><stop offset="0" stop-color="#bf49e4"/><stop offset="0.2" stop-color="#a25de4"/><stop offset="0.64" stop-color="#598ee4"/><stop offset="1" stop-color="#18bae4"/></linearGradient><linearGradient id="linear-gradient-6" x1="952.89" y1="565.68" x2="1027.22" y2="565.68" gradientUnits="userSpaceOnUse"><stop offset="0" stop-color="#6011ca"/><stop offset="0.2" stop-color="#571ccd"/><stop offset="0.54" stop-color="#4038d6"/><stop offset="0.97" stop-color="#1a65e3"/><stop offset="1" stop-color="#1868e4"/></linearGradient><linearGradient id="linear-gradient-7" x1="922.21" y1="555.58" x2="950.56" y2="538.21" xlink:href="#linear-gradient-6"/><linearGradient id="linear-gradient-8" x1="891.95" y1="511.43" x2="959.9" y2="511.43" xlink:href="#linear-gradient-5"/><linearGradient id="linear-gradient-9" x1="891.95" y1="489.46" x2="930.21" y2="489.46" gradientUnits="userSpaceOnUse"><stop offset="0" stop-color="#8636e4"/><stop offset="0.16" stop-color="#7b3ee4"/><stop offset="0.45" stop-color="#5f55e4"/><stop offset="0.81" stop-color="#3279e4"/><stop offset="1" stop-color="#188de4"/></linearGradient><linearGradient id="linear-gradient-10" x1="906.23" y1="449.42" x2="976.33" y2="449.42" xlink:href="#linear-gradient-5"/><linearGradient id="linear-gradient-11" x1="981.81" y1="425.08" x2="970.38" y2="484.06" gradientUnits="userSpaceOnUse"><stop offset="0" stop-color="#e049e4"/><stop offset="0.17" stop-color="#c35ce4"/><stop offset="0.55" stop-color="#798ce4"/><stop offset="1" stop-color="#18cce4"/></linearGradient><linearGradient id="linear-gradient-12" x1="976.33" y1="458.07" x2="1039.43" y2="458.07" xlink:href="#linear-gradient-5"/><linearGradient id="linear-gradient-13" x1="1011.5" y1="514.19" x2="1039.43" y2="514.19" gradientUnits="userSpaceOnUse"><stop offset="0" stop-color="#188de4"/><stop offset="0.19" stop-color="#3279e4"/><stop offset="0.55" stop-color="#5f55e4"/><stop offset="0.84" stop-color="#7b3ee4"/><stop offset="1" stop-color="#8636e4"/></linearGradient></defs><title>layer4</title><g id="Layer_2" data-name="Layer 2"><g id="four"><polygon class="cls-1" points="261.09 152.72 199.46 247.08 114.91 171.51 176.54 77.15 261.09 152.72"/><polygon class="cls-2" points="261.09 152.72 322.51 155.81 237.96 80.24 176.54 77.15 261.09 152.72"/><polygon class="cls-3" points="261.09 152.72 322.51 155.81 260.63 250.08 199.21 246.99 261.09 152.72"/><polygon class="cls-4" points="930.21 472.96 1011.5 490.25 959.9 549.89 930.21 472.96"/><polygon class="cls-5" points="1027.22 550.07 1011.5 490.25 959.9 549.89 1027.22 550.07"/><polygon class="cls-6" points="1027.22 550.07 952.89 581.47 959.9 549.89 1027.22 550.07"/><polygon class="cls-7" points="891.95 529.45 952.89 581.47 959.9 549.89 891.95 529.45"/><polygon class="cls-8" points="891.95 529.45 930.21 472.96 959.9 549.89 891.95 529.45"/><polygon class="cls-9" points="891.95 529.45 930.21 472.96 906.23 449.47 891.95 529.45"/><polygon class="cls-10" points="976.33 425.89 930.21 472.96 906.23 449.47 976.33 425.89"/><polygon class="cls-11" points="930.21 472.96 1011.5 490.25 976.33 425.89 930.21 472.96"/><polygon class="cls-12" points="1039.43 478.32 1011.5 490.25 976.33 425.89 1039.43 478.32"/><polygon class="cls-13" points="1039.43 478.32 1011.5 490.25 1027.22 550.07 1039.43 478.32"/><rect class="cls-14" y="0.18" width="1366.23" height="910.82"/><rect class="cls-14" width="1368" height="840"/></g></g></svg>