<svg xmlns="http://www.w3.org/2000/svg" xmlns:xlink="http://www.w3.org/1999/xlink" viewBox="0 0 31 31"><defs><style>.cls-1{fill:#fff;stroke:#fff;stroke-miterlimit:10;}.cls-2{fill:url(#linear-gradient);}.cls-3{fill:url(#linear-gradient-2);}.cls-4{fill:url(#linear-gradient-3);}</style><linearGradient id="linear-gradient" x1="9.97" y1="17.33" x2="12.25" y2="17.33" gradientUnits="userSpaceOnUse"><stop offset="0" stop-color="#0108b1"/><stop offset="0.23" stop-color="#2f0aaa"/><stop offset="0.46" stop-color="#560ca4"/><stop offset="0.68" stop-color="#720ea0"/><stop offset="0.86" stop-color="#830f9e"/><stop offset="1" stop-color="#890f9d"/></linearGradient><linearGradient id="linear-gradient-2" x1="9.97" y1="11.41" x2="12.25" y2="11.41" xlink:href="#linear-gradient"/><linearGradient id="linear-gradient-3" x1="13.81" y1="17.23" x2="21.65" y2="17.23" xlink:href="#linear-gradient"/></defs><title>linkedInHover</title><g id="Layer_2" data-name="Layer 2"><g id="Layer_6" data-name="Layer 6"><circle class="cls-1" cx="15.5" cy="15.5" r="15"/><path class="cls-2" d="M10.35,21h1.52a.38.38,0,0,0,.38-.38V14a.38.38,0,0,0-.38-.38H10.35A.38.38,0,0,0,10,14v6.64A.38.38,0,0,0,10.35,21Z"/><path class="cls-3" d="M10.35,12.46h1.52a.37.37,0,0,0,.38-.37V10.74a.38.38,0,0,0-.38-.38H10.35a.38.38,0,0,0-.38.38v1.35A.37.37,0,0,0,10.35,12.46Z"/><path class="cls-4" d="M21.08,14.4a2.31,2.31,0,0,0-.94-.69,3.47,3.47,0,0,0-1.38-.27,3.39,3.39,0,0,0-2.59,1.16c-.14.16-.25.13-.25-.08V14a.38.38,0,0,0-.38-.38H14.19a.38.38,0,0,0-.38.38v6.64a.38.38,0,0,0,.38.38h1.52a.38.38,0,0,0,.38-.38V18.34a7.36,7.36,0,0,1,.17-2,1.71,1.71,0,0,1,.64-.86A1.9,1.9,0,0,1,18,15.18a1.27,1.27,0,0,1,1.26.86,6.61,6.61,0,0,1,.15,1.8v2.81a.38.38,0,0,0,.37.38h1.52a.38.38,0,0,0,.38-.38V16.89a7.34,7.34,0,0,0-.12-1.53A2.65,2.65,0,0,0,21.08,14.4Z"/></g></g></svg>