<svg xmlns="http://www.w3.org/2000/svg" viewBox="0 0 31 31"><defs><style>.cls-1{fill:#fff;}.cls-2{fill:none;stroke:#fff;stroke-miterlimit:10;}</style></defs><title>linkedInIcon</title><g id="Layer_2" data-name="Layer 2"><g id="Layer_6" data-name="Layer 6"><path class="cls-1" d="M10.35,21h1.52a.38.38,0,0,0,.38-.38V14a.38.38,0,0,0-.38-.38H10.35A.38.38,0,0,0,10,14v6.64A.38.38,0,0,0,10.35,21Z"/><path class="cls-1" d="M10.35,12.46h1.52a.37.37,0,0,0,.38-.37V10.74a.38.38,0,0,0-.38-.38H10.35a.38.38,0,0,0-.38.38v1.35A.37.37,0,0,0,10.35,12.46Z"/><path class="cls-1" d="M21.08,14.4a2.31,2.31,0,0,0-.94-.69,3.47,3.47,0,0,0-1.38-.27,3.39,3.39,0,0,0-2.59,1.16c-.14.16-.25.13-.25-.08V14a.38.38,0,0,0-.38-.38H14.19a.38.38,0,0,0-.38.38v6.64a.38.38,0,0,0,.38.38h1.52a.38.38,0,0,0,.38-.38V18.34a7.36,7.36,0,0,1,.17-2,1.71,1.71,0,0,1,.64-.86A1.9,1.9,0,0,1,18,15.18a1.27,1.27,0,0,1,1.26.86,6.61,6.61,0,0,1,.15,1.8v2.81a.38.38,0,0,0,.37.38h1.52a.38.38,0,0,0,.38-.38V16.89a7.34,7.34,0,0,0-.12-1.53A2.65,2.65,0,0,0,21.08,14.4Z"/><circle class="cls-2" cx="15.5" cy="15.5" r="15"/></g></g></svg>