<svg xmlns="http://www.w3.org/2000/svg" xmlns:xlink="http://www.w3.org/1999/xlink" viewBox="0 0 285 285"><defs><style>.cls-1{opacity:0.42;fill:url(#linear-gradient);}.cls-2{fill:#fff;}</style><linearGradient id="linear-gradient" y1="142.5" x2="285" y2="142.5" gradientUnits="userSpaceOnUse"><stop offset="0" stop-color="#0108b1"/><stop offset="0.23" stop-color="#2f0aaa"/><stop offset="0.46" stop-color="#560ca4"/><stop offset="0.68" stop-color="#720ea0"/><stop offset="0.86" stop-color="#830f9e"/><stop offset="1" stop-color="#890f9d"/></linearGradient></defs><title>logo</title><g id="Layer_2" data-name="Layer 2"><g id="Layer_6" data-name="Layer 6"><circle class="cls-1" cx="142.5" cy="142.5" r="142.5"/><path class="cls-2" d="M30.61,97h1.26v24.81h15.2V123H30.61Z"/><path class="cls-2" d="M68.13,115.35H52.6L49.11,123H47.74l12-26H61l12,26H71.62Zm-.48-1.07L60.38,98.45l-7.3,15.83Z"/><path class="cls-2" d="M79.94,120.29q-2.68-2.82-2.69-8.27V97h1.26v15q0,5,2.3,7.47a8.58,8.58,0,0,0,6.64,2.5,8.57,8.57,0,0,0,6.62-2.5c1.54-1.67,2.32-4.16,2.32-7.47V97h1.22v15q0,5.45-2.67,8.27a9.85,9.85,0,0,1-7.49,2.81A9.92,9.92,0,0,1,79.94,120.29Z"/><path class="cls-2" d="M125.12,123,118.71,114a16.14,16.14,0,0,1-2.82.22h-7.75V123h-1.26V97h9q4.86,0,7.58,2.28a7.79,7.79,0,0,1,2.73,6.32,7.86,7.86,0,0,1-6.23,8.12l6.64,9.24ZM116,113.09c2.9,0,5.12-.65,6.68-1.94A6.81,6.81,0,0,0,125,105.6a6.74,6.74,0,0,0-2.33-5.5c-1.56-1.3-3.78-1.95-6.68-1.95h-7.82v14.94Z"/><path class="cls-2" d="M149.41,115.35H133.87L130.39,123H129l12-26h1.22l12,26h-1.38Zm-.48-1.07-7.27-15.83-7.31,15.83Z"/><path class="cls-2" d="M184.6,115.35H169.06L165.57,123H164.2l12-26h1.22l12,26h-1.37Zm-.49-1.07-7.26-15.83-7.31,15.83Z"/><path class="cls-2" d="M215.22,97v26h-1L195.76,99.3V123H194.5V97h1L214,120.66V97Z"/><path class="cls-2" d="M245.44,97v26h-1L226,99.3V123h-1.27V97h1l18.43,23.66V97Z"/><path class="cls-2" d="M38.77,192.75a32,32,0,0,1-10.54-4.95l4.66-10.32a31.62,31.62,0,0,0,9,4.48,34,34,0,0,0,10.5,1.69c3.89,0,6.76-.57,8.63-1.73a5.25,5.25,0,0,0,2.79-4.61,4.44,4.44,0,0,0-1.65-3.52A12.62,12.62,0,0,0,58,171.55q-2.58-.84-7-1.86a96.51,96.51,0,0,1-11.09-3.21,18.07,18.07,0,0,1-7.4-5.17q-3.09-3.56-3.09-9.47a16.49,16.49,0,0,1,2.79-9.35,18.77,18.77,0,0,1,8.42-6.65,34.47,34.47,0,0,1,13.75-2.45,45.69,45.69,0,0,1,11.09,1.35,32.62,32.62,0,0,1,9.47,3.9L70.71,149a33,33,0,0,0-16.41-4.65c-3.84,0-6.67.62-8.51,1.86A5.69,5.69,0,0,0,43,151.16a4.81,4.81,0,0,0,3.18,4.53,50.23,50.23,0,0,0,9.68,2.92A96.51,96.51,0,0,1,67,161.82a18.35,18.35,0,0,1,7.4,5.08q3.09,3.47,3.09,9.39a16.19,16.19,0,0,1-2.83,9.27,19.1,19.1,0,0,1-8.51,6.64,34.75,34.75,0,0,1-13.79,2.45A48.43,48.43,0,0,1,38.77,192.75Z"/><path class="cls-2" d="M132.74,182.64v11H86.87V134.41h44.77v11H100.5v12.86H128v10.66H100.5v13.71Z"/><path class="cls-2" d="M182.66,180.94h-27.5l-5.25,12.7h-14l26.4-59.23H175.8l26.49,59.23H187.91Zm-4.32-10.4L169,147.86l-9.39,22.68Z"/><path class="cls-2" d="M208.47,134.41h13.7v48.06h29.7v11.17h-43.4Z"/></g></g></svg>