<?xml version="1.0" encoding="utf-8"?>
<!-- Generator: Adobe Illustrator 24.1.1, SVG Export Plug-In . SVG Version: 6.00 Build 0)  -->
<svg version="1.1" id="Layer_1" xmlns="http://www.w3.org/2000/svg" xmlns:xlink="http://www.w3.org/1999/xlink" x="0px" y="0px"
	 viewBox="0 0 285 418" style="enable-background:new 0 0 285 418;" xml:space="preserve">
<style type="text/css">
	.st0{opacity:0.42;fill:url(#SVGID_1_);enable-background:new    ;}
	.st1{fill:#FFFFFF;}
</style>
<linearGradient id="SVGID_1_" gradientUnits="userSpaceOnUse" x1="0" y1="143.3898" x2="285" y2="143.3898" gradientTransform="matrix(1 0 0 -1 0 285.8898)">
	<stop  offset="0" style="stop-color:#0108B1"/>
	<stop  offset="0.23" style="stop-color:#2F0AAA"/>
	<stop  offset="0.46" style="stop-color:#560CA4"/>
	<stop  offset="0.68" style="stop-color:#720EA0"/>
	<stop  offset="0.86" style="stop-color:#830F9E"/>
	<stop  offset="1" style="stop-color:#890F9D"/>
</linearGradient>
<circle class="st0" cx="142.5" cy="142.5" r="142.5"/>
<g>
	<path class="st1" d="M33.1,303.5h1.3v24.8h15.2v1.2H33.1V303.5z"/>
	<path class="st1" d="M70.6,321.8H55.1l-3.5,7.6h-1.4l12-26h1.3l12,26h-1.4L70.6,321.8z M70.1,320.8l-7.3-15.8l-7.3,15.8H70.1z"/>
	<path class="st1" d="M82.4,326.8c-1.8-1.9-2.7-4.6-2.7-8.3v-15H81v15c0,3.3,0.8,5.8,2.3,7.5c1.7,1.8,4.2,2.7,6.6,2.5
		c2.5,0.2,4.9-0.8,6.6-2.5c1.5-1.7,2.3-4.2,2.3-7.5v-15h1.2v15c0,3.6-0.9,6.4-2.7,8.3c-2,2-4.7,3-7.5,2.8
		C87.1,329.7,84.4,328.7,82.4,326.8z"/>
	<path class="st1" d="M127.6,329.5l-6.4-9c-0.9,0.2-1.9,0.2-2.8,0.2h-7.8v8.8h-1.3v-26h9c3.2,0,5.8,0.8,7.6,2.3
		c1.8,1.6,2.9,3.9,2.7,6.3c0.2,3.9-2.4,7.3-6.2,8.1l6.6,9.2L127.6,329.5z M118.5,319.6c2.9,0,5.1-0.6,6.7-1.9
		c1.6-1.4,2.4-3.4,2.3-5.5c0.1-2.1-0.7-4.1-2.3-5.5c-1.6-1.3-3.8-2-6.7-2h-7.8v14.9H118.5z"/>
	<path class="st1" d="M151.9,321.8h-15.5l-3.5,7.6h-1.4l12-26h1.2l12,26h-1.4L151.9,321.8z M151.4,320.8l-7.3-15.8l-7.3,15.8H151.4z
		"/>
	<path class="st1" d="M187.1,321.8h-15.5l-3.5,7.6h-1.4l12-26h1.2l12,26h-1.4L187.1,321.8z M186.6,320.8l-7.3-15.8l-7.3,15.8H186.6z
		"/>
	<path class="st1" d="M217.7,303.5v26h-1l-18.5-23.7v23.7h-1.3v-26h1l18.5,23.7v-23.7H217.7z"/>
	<path class="st1" d="M247.9,303.5v26h-1l-18.4-23.7v23.7h-1.3v-26h1l18.4,23.7v-23.7H247.9z"/>
	<path class="st1" d="M41.2,399.2c-3.8-1-7.4-2.7-10.5-5l4.7-10.3c2.7,2,5.8,3.5,9,4.5c3.4,1.1,6.9,1.7,10.5,1.7
		c3.9,0,6.8-0.6,8.6-1.7c1.7-0.9,2.8-2.7,2.8-4.6c0-1.4-0.6-2.7-1.7-3.5c-1.2-1-2.6-1.8-4.2-2.2c-1.7-0.6-4.1-1.2-7-1.9
		c-3.8-0.8-7.5-1.9-11.1-3.2c-2.9-1.1-5.4-2.8-7.4-5.2c-2.1-2.4-3.1-5.5-3.1-9.5c0-3.3,0.9-6.6,2.8-9.4c2.1-3,5-5.3,8.4-6.6
		c4.4-1.7,9-2.6,13.8-2.5c3.7,0,7.5,0.4,11.1,1.4c3.3,0.8,6.5,2.1,9.5,3.9l-4.2,10.4c-5-3-10.6-4.6-16.4-4.6c-3.8,0-6.7,0.6-8.5,1.9
		c-1.7,1-2.8,2.9-2.8,5c0,2,1.3,3.8,3.2,4.5c3.1,1.3,6.4,2.3,9.7,2.9c3.8,0.8,7.5,1.9,11.1,3.2c2.8,1.1,5.4,2.8,7.4,5.1
		c2.1,2.3,3.1,5.4,3.1,9.4c0,3.3-1,6.5-2.8,9.3c-2.1,3-5.1,5.3-8.5,6.6c-4.4,1.7-9.1,2.6-13.8,2.4C50.2,401.1,45.6,400.5,41.2,399.2
		z"/>
	<path class="st1" d="M135.2,389.1v11H89.3v-59.2h44.8v11H103v12.9h27.5v10.7H103v13.7L135.2,389.1z"/>
	<path class="st1" d="M185.1,387.4h-27.5l-5.3,12.7h-14l26.4-59.2h13.5l26.5,59.2h-14.4L185.1,387.4z M180.8,377l-9.3-22.7
		l-9.4,22.7H180.8z"/>
	<path class="st1" d="M210.9,340.9h13.7v48.1h29.7v11.2h-43.4V340.9z"/>
</g>
<path class="st1" d="M142.5,30C80.5,30,30,80.5,30,142.5S80.5,255,142.5,255S255,204.5,255,142.5S204.5,30,142.5,30z M57.3,203.1
	c-12.2-17.1-19.4-38-19.4-60.6S45.1,99,57.3,81.9V203.1z M194.2,219.3c0,4.8-2.8,7.2-8.5,7.2c-5.9,0-8.8-2.4-8.8-7.2v-48.5h-42.2
	v48.2c0,3.3,0.3,6.4,0.9,9.3h-31.9v-183c12-4.8,25-7.5,38.7-7.5c11.2,0,21.9,1.8,32,5c-26.4,3.3-39.7,16.7-39.7,40.3V107
	c0,7.9,2.4,15.1,7.2,21.7c4.8,6.6,17.1,19.5,36.9,38.6c10.2,10.3,15.3,19.3,15.3,27V219.3z M232.8,163.2c-5.3-7.4-17.6-20.3-37-38.9
	c-10.4-10.4-15.7-19.6-15.7-27.4l-0.9-13.7c0-8.2,2.8-12.2,8.3-12.2c4.7,0,7.1,2.1,7.1,6.3v38.9h42.2V97.1
	c6.7,13.7,10.4,29.2,10.4,45.4c0,13.4-2.5,26.1-7.1,37.9C238.9,174.1,236.5,168.4,232.8,163.2z"/>
</svg>
