<svg xmlns="http://www.w3.org/2000/svg" viewBox="0 0 282.06 282.06"><defs><style>.cls-1{fill:#fff;}</style></defs><g id="Layer_2" data-name="Layer 2"><g id="Layer_1-2" data-name="Layer 1"><path class="cls-1" d="M141,0C63.27,0,0,63.27,0,141s63.27,141,141,141,141-63.26,141-141S218.8,0,141,0ZM34.28,217a130.65,130.65,0,0,1,0-151.92Zm171.59,20.36q0,9.06-10.63,9.06-11,0-11-9.06v-60.8H131.38V237a58.77,58.77,0,0,0,1.1,11.64h-40V19.28a130.69,130.69,0,0,1,88.63-3.05q-49.74,6.24-49.75,50.52V96.51a45,45,0,0,0,9.06,27.17q9,12.39,46.2,48.43,19.23,19.41,19.23,33.82Zm48.31-70.42q-9.92-13.86-46.42-48.79-19.63-19.59-19.64-34.38L187,66.57q0-15.34,10.37-15.34,8.85,0,8.86,8V108H259.1V84.08a130.8,130.8,0,0,1,4.1,104.41A51.76,51.76,0,0,0,254.18,166.93Z"/></g></g></svg>